<svg xmlns="http://www.w3.org/2000/svg" viewBox="0 0 1200 750" font-family="Inter, Segoe UI, sans-serif">
  <defs>
    <linearGradient id="bg" x1="0" y1="0" x2="1" y2="1">
      <stop offset="0" stop-color="#0d0f1f"/>
      <stop offset="1" stop-color="#121b3a"/>
    </linearGradient>
    <radialGradient id="glow" cx="0.5" cy="0.25" r="0.6">
      <stop offset="0" stop-color="#f97316" stop-opacity="0.35"/>
      <stop offset="1" stop-color="#f97316" stop-opacity="0"/>
    </radialGradient>
  </defs>
  <rect width="1200" height="750" fill="url(#bg)"/>
  <rect width="1200" height="750" fill="url(#glow)"/>
  <!-- dot product -->
  <circle cx="600" cy="140" r="52" fill="#f97316" fill-opacity="0.18" stroke="#fb923c" stroke-width="3"/>
  <circle cx="600" cy="140" r="10" fill="#fdba74"/>
  <path d="M600 192 L380 270 M600 192 L820 270" stroke="#fb923c" stroke-width="3" stroke-dasharray="8 8"/>
  <!-- towers -->
  <g fill="#1e2a55" stroke="#93c5fd" stroke-opacity="0.35" stroke-width="2">
    <rect x="260" y="270" width="240" height="64" rx="14"/>
    <rect x="260" y="360" width="240" height="64" rx="14"/>
    <rect x="260" y="450" width="240" height="64" rx="14"/>
    <rect x="700" y="270" width="240" height="64" rx="14"/>
    <rect x="700" y="360" width="240" height="64" rx="14"/>
    <rect x="700" y="450" width="240" height="64" rx="14"/>
  </g>
  <g fill="#60a5fa">
    <rect x="290" y="294" width="180" height="16" rx="8" fill-opacity="0.9"/>
    <rect x="290" y="384" width="150" height="16" rx="8" fill-opacity="0.6"/>
    <rect x="290" y="474" width="120" height="16" rx="8" fill-opacity="0.4"/>
  </g>
  <g fill="#c084fc">
    <rect x="730" y="294" width="180" height="16" rx="8" fill-opacity="0.9"/>
    <rect x="730" y="384" width="150" height="16" rx="8" fill-opacity="0.6"/>
    <rect x="730" y="474" width="120" height="16" rx="8" fill-opacity="0.4"/>
  </g>
  <!-- inputs -->
  <g>
    <circle cx="380" cy="600" r="42" fill="#60a5fa" fill-opacity="0.2" stroke="#60a5fa" stroke-width="3"/>
    <circle cx="380" cy="588" r="12" fill="#93c5fd"/><path d="M358 618c6-14 38-14 44 0" stroke="#93c5fd" stroke-width="5" fill="none"/>
    <rect x="780" y="560" width="80" height="80" rx="16" fill="#c084fc" fill-opacity="0.2" stroke="#c084fc" stroke-width="3"/>
    <rect x="798" y="578" width="44" height="28" rx="6" fill="#d8b4fe"/><rect x="798" y="614" width="30" height="8" rx="4" fill="#d8b4fe"/>
  </g>
  <path d="M380 558V514M820 558V514" stroke="#ffffff" stroke-opacity="0.3" stroke-width="3"/>
  <text x="380" y="690" text-anchor="middle" fill="#93c5fd" fill-opacity="0.75" font-size="20" letter-spacing="3">USER TOWER</text>
  <text x="820" y="690" text-anchor="middle" fill="#d8b4fe" fill-opacity="0.75" font-size="20" letter-spacing="3">ITEM TOWER</text>
  <text x="1110" y="80" text-anchor="end" fill="#fdba74" fill-opacity="0.7" font-size="22" letter-spacing="4">+12.4% RECALL</text>
</svg>
